<svg width="14" height="14" viewBox="0 0 14 14" fill="none" xmlns="http://www.w3.org/2000/svg">
<g clip-path="url(#clip0_129_657)">
<path d="M6.2125 0.85586C5.74492 1.32344 5.35938 1.72266 5.35938 1.73633C5.35938 1.75273 5.50703 1.91133 5.6875 2.0918L6.01562 2.41992L4.54727 3.88828L3.07617 5.35938L2.73438 5.01758L2.39258 4.67578L1.52305 5.54531C1.04727 6.02109 0.65625 6.42578 0.65625 6.43945C0.65625 6.475 4.76328 10.582 4.79883 10.582C4.8125 10.582 5.21719 10.191 5.69297 9.71523L6.5625 8.8457L6.2207 8.50391L5.87891 8.16211L6.2207 7.82031C6.51602 7.525 6.56797 7.48398 6.60078 7.51953C6.61992 7.54141 7.57422 8.69805 8.72266 10.0898C9.86836 11.4816 10.891 12.7012 10.9922 12.7996C11.1836 12.9828 11.4297 13.1305 11.7031 13.2234C11.8207 13.2645 11.9328 13.2754 12.209 13.2754C12.5289 13.2754 12.5863 13.2672 12.7914 13.1961C13.3219 13.0156 13.7348 12.6082 13.9207 12.0859C13.9781 11.9301 13.9863 11.859 13.9863 11.498C13.9836 11.1234 13.9781 11.0715 13.9125 10.9047C13.8168 10.6531 13.6855 10.4398 13.5215 10.2703C13.4477 10.1938 12.4305 9.34336 11.2656 8.38086C10.1008 7.41836 8.9332 6.45586 8.67344 6.23711L8.19766 5.84336L8.50664 5.53438L8.81836 5.22266L9.14648 5.55078C9.32695 5.73125 9.48828 5.87891 9.50195 5.87891C9.5375 5.87891 11.2383 4.17813 11.2383 4.14258C11.2383 4.10703 7.13125 0 7.0957 0C7.0793 0 6.68281 0.385547 6.2125 0.85586ZM9.76719 4.40781L9.48828 4.68945L8.01172 3.21289L6.53516 1.73633L6.81406 1.45742L7.0957 1.17578L8.57227 2.65234L10.0488 4.12891L9.76719 4.40781ZM7.42383 3.82812L8.2168 4.62109L6.7457 6.09219L5.27734 7.56055L4.47891 6.75938L3.67773 5.96094L5.14062 4.49805C5.94453 3.69414 6.60898 3.03516 6.61719 3.03516C6.62539 3.03516 6.98906 3.39336 7.42383 3.82812ZM5.07227 9.10547L4.79883 9.37891L3.32227 7.90234L1.8457 6.42578L2.11914 6.15234L2.39258 5.87891L3.86914 7.35547L5.3457 8.83203L5.07227 9.10547ZM10.1855 8.59961C11.5855 9.75352 12.7887 10.7543 12.8598 10.8254C12.9336 10.8937 13.0266 11.0113 13.0648 11.0879C13.1305 11.2082 13.1387 11.2547 13.1387 11.498C13.1387 11.7277 13.1277 11.7906 13.0758 11.8973C12.9773 12.0996 12.8379 12.2391 12.6383 12.3375C12.4742 12.4195 12.4305 12.4277 12.2199 12.4277C12.0039 12.4277 11.9684 12.4195 11.7961 12.332L11.6102 12.2363L9.41172 9.58398C8.20586 8.12383 7.21055 6.91523 7.19961 6.89609C7.17773 6.84688 7.57422 6.44766 7.6125 6.47773C7.62891 6.49141 8.78828 7.4457 10.1855 8.59961Z" fill="#151515"/>
<path d="M0.951562 11.591C0.519531 11.7305 0.185937 12.0641 0.0546875 12.4906C0.00546875 12.6465 0 12.7449 0 13.3328V14H4.22734H8.45742L8.44101 13.3383C8.43008 12.7668 8.41914 12.6492 8.37266 12.4961C8.23047 12.0613 7.89687 11.725 7.47031 11.5938C7.30078 11.5418 7.21328 11.5391 4.2 11.5418C1.28516 11.5418 1.09922 11.5445 0.951562 11.591ZM7.27344 12.425C7.48672 12.5398 7.56601 12.6766 7.59336 12.9746L7.60977 13.1797H4.22734H0.847656V12.9746C0.847656 12.6301 0.984375 12.4469 1.28516 12.384C1.33711 12.373 2.68516 12.3676 4.2793 12.3703C7.05469 12.373 7.18047 12.3758 7.27344 12.425Z" fill="#151515"/>
</g>
<defs>
<clipPath id="clip0_129_657">
<rect width="14" height="14" fill="white"/>
</clipPath>
</defs>
</svg>
